<svg xmlns="http://www.w3.org/2000/svg" xlink="http://www.w3.org/1999/xlink" width="0" height="0" style="display:none;"><symbol viewBox="0 0 24 24" id="cpu-line"><path fill="none" d="M0 0h24v24H0z"/><path d="M6 18h12V6H6v12zm8 2h-4v2H8v-2H5a1 1 0 0 1-1-1v-3H2v-2h2v-4H2V8h2V5a1 1 0 0 1 1-1h3V2h2v2h4V2h2v2h3a1 1 0 0 1 1 1v3h2v2h-2v4h2v2h-2v3a1 1 0 0 1-1 1h-3v2h-2v-2zM8 8h8v8H8V8z"/></symbol><symbol viewBox="0 0 24 24" id="checkbox-blank-circle-line"><path fill="none" d="M0 0h24v24H0z"/><path d="M12 22C6.477 22 2 17.523 2 12S6.477 2 12 2s10 4.477 10 10-4.477 10-10 10zm0-2a8 8 0 1 0 0-16 8 8 0 0 0 0 16z"/></symbol><symbol viewBox="0 0 24 24" id="checkbox-circle-line"><path fill="none" d="M0 0h24v24H0z"/><path d="M12 22C6.477 22 2 17.523 2 12S6.477 2 12 2s10 4.477 10 10-4.477 10-10 10zm0-2a8 8 0 1 0 0-16 8 8 0 0 0 0 16zm-.997-4L6.76 11.757l1.414-1.414 2.829 2.829 5.656-5.657 1.415 1.414L11.003 16z"/></symbol><symbol viewBox="0 0 24 24" id="download-2-line"><path fill="none" d="M0 0h24v24H0z"/><path d="M13 10h5l-6 6-6-6h5V3h2v7zm-9 9h16v-7h2v8a1 1 0 0 1-1 1H3a1 1 0 0 1-1-1v-8h2v7z"/></symbol><symbol viewBox="0 0 24 24" id="chat-smile-2-line"><path fill="none" d="M0 0h24v24H0z"/><path d="M7.291 20.824L2 22l1.176-5.291A9.956 9.956 0 0 1 2 12C2 6.477 6.477 2 12 2s10 4.477 10 10-4.477 10-10 10a9.956 9.956 0 0 1-4.709-1.176zm.29-2.113l.653.35A7.955 7.955 0 0 0 12 20a8 8 0 1 0-8-8c0 1.334.325 2.618.94 3.766l.349.653-.655 2.947 2.947-.655zM7 12h2a3 3 0 0 0 6 0h2a5 5 0 0 1-10 0z"/></symbol><symbol viewBox="0 0 24 24" id="time-line"><path fill="none" d="M0 0h24v24H0z"/><path d="M12 22C6.477 22 2 17.523 2 12S6.477 2 12 2s10 4.477 10 10-4.477 10-10 10zm0-2a8 8 0 1 0 0-16 8 8 0 0 0 0 16zm1-8h4v2h-6V7h2v5z"/></symbol><symbol viewBox="0 0 24 24" id="earth-line"><path fill="none" d="M0 0h24v24H0z"/><path d="M6.235 6.453a8 8 0 0 0 8.817 12.944c.115-.75-.137-1.47-.24-1.722-.23-.56-.988-1.517-2.253-2.844-.338-.355-.316-.628-.195-1.437l.013-.091c.082-.554.22-.882 2.085-1.178.948-.15 1.197.228 1.542.753l.116.172c.328.48.571.59.938.756.165.075.37.17.645.325.652.373.652.794.652 1.716v.105c0 .391-.038.735-.098 1.034a8.002 8.002 0 0 0-3.105-12.341c-.553.373-1.312.902-1.577 1.265-.135.185-.327 1.132-.95 1.21-.162.02-.381.006-.613-.009-.622-.04-1.472-.095-1.744.644-.173.468-.203 1.74.356 2.4.09.105.107.3.046.519-.08.287-.241.462-.292.498-.096-.056-.288-.279-.419-.43-.313-.365-.705-.82-1.211-.96-.184-.051-.386-.093-.583-.135-.549-.115-1.17-.246-1.315-.554-.106-.226-.105-.537-.105-.865 0-.417 0-.888-.204-1.345a1.276 1.276 0 0 0-.306-.43zM12 22C6.477 22 2 17.523 2 12S6.477 2 12 2s10 4.477 10 10-4.477 10-10 10z"/></symbol><symbol viewBox="0 0 24 24" id="u-disk-line"><path fill="none" d="M0 0h24v24H0z"/><path d="M19 12H5v8h14v-8zM5 10V2h14v8h1a1 1 0 0 1 1 1v10a1 1 0 0 1-1 1H4a1 1 0 0 1-1-1V11a1 1 0 0 1 1-1h1zm2 0h10V4H7v6zm2-4h2v2H9V6zm4 0h2v2h-2V6z"/></symbol><symbol viewBox="0 0 24 24" id="key-2-line"><path fill="none" d="M0 0h24v24H0z"/><path d="M10.758 11.828l7.849-7.849 1.414 1.414-1.414 1.415 2.474 2.474-1.414 1.415-2.475-2.475-1.414 1.414 2.121 2.121-1.414 1.415-2.121-2.122-2.192 2.192a5.002 5.002 0 0 1-7.708 6.294 5 5 0 0 1 6.294-7.708zm-.637 6.293A3 3 0 1 0 5.88 13.88a3 3 0 0 0 4.242 4.242z"/></symbol><symbol viewBox="0 0 24 24" id="arrow-right-s-line"><path fill="none" d="M0 0h24v24H0z"/><path d="M13.172 12l-4.95-4.95 1.414-1.414L16 12l-6.364 6.364-1.414-1.414z"/></symbol><symbol viewBox="0 0 24 24" id="thumb-up-line"><path fill="none" d="M0 0h24v24H0z"/><path d="M14.6 8H21a2 2 0 0 1 2 2v2.104a2 2 0 0 1-.15.762l-3.095 7.515a1 1 0 0 1-.925.619H2a1 1 0 0 1-1-1V10a1 1 0 0 1 1-1h3.482a1 1 0 0 0 .817-.423L11.752.85a.5.5 0 0 1 .632-.159l1.814.907a2.5 2.5 0 0 1 1.305 2.853L14.6 8zM7 10.588V19h11.16L21 12.104V10h-6.4a2 2 0 0 1-1.938-2.493l.903-3.548a.5.5 0 0 0-.261-.571l-.661-.33-4.71 6.672c-.25.354-.57.644-.933.858zM5 11H3v8h2v-8z"/></symbol><symbol viewBox="0 0 24 24" id="loader-2-line"><path fill="none" d="M0 0h24v24H0z"/><path d="M12 2a1 1 0 0 1 1 1v3a1 1 0 0 1-2 0V3a1 1 0 0 1 1-1zm0 15a1 1 0 0 1 1 1v3a1 1 0 0 1-2 0v-3a1 1 0 0 1 1-1zm10-5a1 1 0 0 1-1 1h-3a1 1 0 0 1 0-2h3a1 1 0 0 1 1 1zM7 12a1 1 0 0 1-1 1H3a1 1 0 0 1 0-2h3a1 1 0 0 1 1 1zm12.071 7.071a1 1 0 0 1-1.414 0l-2.121-2.121a1 1 0 0 1 1.414-1.414l2.121 2.12a1 1 0 0 1 0 1.415zM8.464 8.464a1 1 0 0 1-1.414 0L4.93 6.344a1 1 0 0 1 1.414-1.415L8.464 7.05a1 1 0 0 1 0 1.414zM4.93 19.071a1 1 0 0 1 0-1.414l2.121-2.121a1 1 0 1 1 1.414 1.414l-2.12 2.121a1 1 0 0 1-1.415 0zM15.536 8.464a1 1 0 0 1 0-1.414l2.12-2.121a1 1 0 0 1 1.415 1.414L16.95 8.464a1 1 0 0 1-1.414 0z"/></symbol></svg>